<?xml version="1.0" encoding="UTF-8"?><svg id="a" xmlns="http://www.w3.org/2000/svg" viewBox="0 0 1024 1024"><defs><style>.c{fill:#fff8;}.d{fill:none;stroke:#fff8;stroke-linecap:round;stroke-width:15px;}</style></defs><path class="c" d="M512,15c67.101,0,132.187,13.139,193.45,39.05,59.181,25.031,112.333,60.869,157.982,106.517,45.648,45.648,81.486,98.801,106.517,157.982,25.912,61.263,39.05,126.349,39.05,193.45s-13.138,132.187-39.05,193.45c-25.031,59.181-60.869,112.333-106.517,157.982-45.648,45.648-98.801,81.486-157.982,106.517-61.263,25.912-126.349,39.05-193.45,39.05s-132.187-13.138-193.45-39.05c-59.181-25.031-112.333-60.869-157.982-106.517-45.648-45.648-81.486-98.801-106.517-157.982-25.912-61.263-39.05-126.349-39.05-193.45s13.139-132.187,39.05-193.45c25.031-59.181,60.869-112.333,106.517-157.982,45.648-45.648,98.801-81.486,157.982-106.517,61.263-25.912,126.349-39.05,193.45-39.05m0-15C229.23,0,0,229.23,0,512s229.23,512,512,512,512-229.23,512-512S794.77,0,512,0h0Z"/><path class="c" d="M737.88,609.88v57.91l-35.16,50.98c-3.91,5.67-4.77,12.77-2.45,19.11H323.73c2.32-6.34,1.46-13.44-2.45-19.11l-35.16-50.98v-57.91c0-12.47,10.11-22.59,22.59-22.59h105.41c12.47,0,22.59-10.11,22.59-22.58v-105.42c0-12.47,10.11-22.58,22.58-22.58h105.42c12.47,0,22.58,10.11,22.58,22.58v105.42c0,12.47,10.12,22.58,22.59,22.58h105.41c12.48,0,22.59,10.12,22.59,22.59Z"/><path class="c" d="M809.602,590.241l-94.531,137.048c-2.901,4.205,.421,9.886,5.508,9.421l64.886-5.934c5.559-.508,7.497-7.649,2.959-10.898l-16.588-11.876c-2.379-1.704-3.191-4.87-1.923-7.508l50.079-104.222c3.218-6.697-6.171-12.146-10.39-6.03Z"/><path class="c" d="M264.308,427.228l23.252-15.164c3.162-2.062,7.419-.742,8.86,2.747l45.493,110.194c2.725,6.601-6.264,11.617-10.45,5.83l-68.745-95.029c-2.017-2.789-1.293-6.698,1.59-8.578Z"/><path class="c" d="M759.692,427.228l-23.252-15.164c-3.162-2.062-7.419-.742-8.86,2.747l-45.493,110.194c-2.725,6.601,6.264,11.617,10.45,5.83l68.745-95.029c2.017-2.789,1.293-6.698-1.59-8.578Z"/><path class="c" d="M214.398,590.241l94.531,137.048c2.901,4.205-.421,9.886-5.508,9.421l-64.886-5.934c-5.559-.508-7.497-7.649-2.959-10.898l16.588-11.876c2.379-1.704,3.191-4.87,1.923-7.508l-50.079-104.222c-3.218-6.697,6.171-12.146,10.39-6.03Z"/><line class="d" x1="210.824" y1="768" x2="813.176" y2="768"/><path class="c" d="M554.95,374.239l-37.65,37.65c-.52,.53-1.11,.96-1.73,1.29-.14,.08-.29,.16-.44,.22-.4,.19-.82,.34-1.25,.44-.15,.05-.3,.08-.45,.11-.22,.05-.44,.08-.66,.1-.26,.03-.51,.04-.77,.04s-.51-.01-.77-.04c-.22-.02-.44-.05-.66-.1-.15-.03-.3-.06-.45-.11-.43-.1-.85-.25-1.25-.44-.15-.06-.3-.14-.44-.22-.62-.33-1.21-.76-1.73-1.29l-37.65-37.65c-2.93-2.92-2.93-7.67,0-10.6,2.93-2.93,7.68-2.93,10.61,0l24.84,24.84V255.999c0-4.14,3.36-7.5,7.5-7.5s7.5,3.36,7.5,7.5v132.48l24.84-24.84c2.93-2.93,7.68-2.93,10.61,0,2.93,2.93,2.93,7.68,0,10.6Z"/></svg>
