<?xml version="1.0" encoding="UTF-8"?><svg id="b" xmlns="http://www.w3.org/2000/svg" viewBox="0 0 1024 1024"><defs><style>.c{fill:#fff8;}</style></defs><path class="c" d="M512,15c67.101,0,132.187,13.139,193.45,39.05,59.181,25.031,112.333,60.869,157.982,106.517,45.648,45.648,81.486,98.801,106.517,157.982,25.912,61.263,39.051,126.349,39.051,193.45s-13.139,132.187-39.051,193.45c-25.031,59.181-60.869,112.333-106.517,157.982-45.648,45.648-98.801,81.486-157.982,106.517-61.263,25.912-126.349,39.05-193.45,39.05s-132.187-13.138-193.45-39.05c-59.181-25.031-112.333-60.869-157.982-106.517-45.648-45.648-81.486-98.801-106.517-157.982-25.912-61.263-39.051-126.349-39.051-193.45s13.139-132.187,39.051-193.45c25.031-59.181,60.869-112.333,106.517-157.982,45.648-45.648,98.801-81.486,157.982-106.517,61.263-25.912,126.349-39.05,193.45-39.05m0-15C229.23,0,0,229.23,0,512s229.23,512,512,512,512-229.23,512-512S794.77,0,512,0h0Z"/><path class="c" d="M737.882,609.882v105.412c0,12.475-10.113,22.588-22.588,22.588H308.706c-12.475,0-22.588-10.113-22.588-22.588v-105.412c0-12.475,10.113-22.588,22.588-22.588h105.412c12.475,0,22.588-10.113,22.588-22.588v-105.412c0-12.475,10.113-22.588,22.588-22.588h105.412c12.475,0,22.588,10.113,22.588,22.588v105.412c0,12.475,10.113,22.588,22.588,22.588h105.412c12.475,0,22.588,10.113,22.588,22.588Z"/><path class="c" d="M554.95,374.24l-37.65,37.65c-.52,.53-1.11,.96-1.73,1.29-.14,.08-.29,.16-.44,.22-.4,.19-.82,.34-1.25,.44-.15,.05-.3,.08-.45,.11-.22,.05-.44,.08-.66,.1-.26,.03-.51,.04-.77,.04s-.51-.01-.77-.04c-.22-.02-.44-.05-.66-.1-.15-.03-.3-.06-.45-.11-.43-.1-.85-.25-1.25-.44-.15-.06-.3-.14-.44-.22-.62-.33-1.21-.76-1.73-1.29l-37.65-37.65c-2.93-2.92-2.93-7.67,0-10.6,2.93-2.93,7.68-2.93,10.61,0l24.84,24.84v-132.48c0-4.14,3.36-7.5,7.5-7.5s7.5,3.36,7.5,7.5v132.48l24.84-24.84c2.93-2.93,7.68-2.93,10.61,0,2.93,2.93,2.93,7.68,0,10.6Z"/></svg>
