<?xml version="1.0" encoding="utf-8"?>
<!-- Generator: Adobe Illustrator 26.5.0, SVG Export Plug-In . SVG Version: 6.00 Build 0)  -->
<svg version="1.1" id="Layer_1" xmlns="http://www.w3.org/2000/svg" xmlns:xlink="http://www.w3.org/1999/xlink" x="0px" y="0px"
	 viewBox="0 0 1242 1242" style="enable-background:new 0 0 1242 1242;" xml:space="preserve">
<style type="text/css">
	.st0{fill:#fff2;}
</style>
<g>
	<path class="st0" d="M1232,199.5L1232,199.5v462.8H872.1c-11,0-20,9-20,20l0,360.2l-462.2,0V682.3c0-11-9-20-20-20l-359.9,0
		l0-462.8H1232 M1232,189.5H10c-5.5,0-10,4.5-10,10v462.8c0,5.5,4.5,10,10,10h359.9c5.5,0,10,4.5,10,10v360.2c0,5.5,4.5,10,10,10
		h462.2c5.5,0,10-4.5,10-10V682.3c0-5.5,4.5-10,10-10H1232c5.5,0,10-4.5,10-10V199.5C1242,194,1237.5,189.5,1232,189.5L1232,189.5z"
		/>
</g>
<g>
	<polygon class="st0" points="260.8,284.1 104.9,284.1 92.9,284.1 92.9,296.1 92.9,348 92.9,360 104.9,360 145.2,360 145.2,567.6
		145.2,579.6 157.2,579.6 208.5,579.6 220.5,579.6 220.5,567.6 220.5,360 260.8,360 272.8,360 272.8,348 272.8,296.1 272.8,284.1
		"/>
	<path class="st0" d="M505.4,561.7L476,509.8l-3.5-6.1h-7h-96c-5,0-9.1-4.1-9.1-9.1V461h36.4h7l3.5-6.1l29.5-51.9l10.2-17.9h-20.6
		h-65.9v-25.2H453h12v-12v-51.8v-11.9h-12H297.1h-12v12v220.1c0,34.9,28.4,63.3,63.3,63.3H495h20.6L505.4,561.7z"/>
	<polygon class="st0" points="657.2,284.1 645.2,284.1 489.4,284.1 477.4,284.1 477.4,296.1 477.4,348 477.4,360 489.4,360
		529.7,360 529.7,567.6 529.7,579.6 541.7,579.6 593,579.6 605,579.6 605,567.6 605,360 645.3,360 657.3,360 657.3,348 657.3,296.1
		657.3,284.1 	"/>
	<path class="st0" d="M866,476.2l-36.6-60.7l17.9-25.1l0.2-0.3l1.4-2l0.1-0.1l0.1-0.1c7.5-11,11.4-23.9,11.4-37.3c0-1,0-2.1-0.1-3.1
		c-1.5-33.7-28.1-61-61.9-63.2l-0.2-0.1h-0.4H682.3h-12v12v271.5v12h12h51.3h12v-12V422.8l91.3,151.1l3.5,5.8h6.8h8.5h12v-12v-85.3
		v-3.3L866,476.2z M745.5,403.9V360h0.2H758h0.6l0.6-0.1c0,0,0.2,0,0.5,0s0.5,0,0.5,0h0.1h0.1c4.7,0.4,8.4,4.4,8.4,9.1
		c0,2.5-1,4.4-1.8,5.4l-0.1,0.1v0.1l-11.1,15.2L745.5,403.9z"/>
	<polygon class="st0" points="943.8,284.1 892.5,284.1 880.5,284.1 880.5,296.1 880.5,567.6 880.5,579.6 892.5,579.6 943.8,579.6
		955.8,579.6 955.8,567.6 955.8,296.1 955.8,284.1 	"/>
	<path class="st0" d="M1071.7,390.1l-11.2-15l-0.3-0.3c-0.8-1.1-1.7-3-1.7-5.4c0-4.8,3.8-8.9,8.6-9.3h0.1h0.1c0,0,0.2,0,0.5,0
		s0.5,0,0.6,0l0.6,0.1h0.6h27.5h6.8l3.5-5.9l30.9-51.8l10.8-18.1H1128h-89.7c-1.6-0.3-3-0.4-4.4-0.4c-36.6,0-66.5,29.8-66.5,66.5
		c0,14.2,4.4,27.8,12.8,39.2l61.2,84.6l11.7,16.1l0.1,0.1l0.1,0.1l0.1,0.1l0.2,0.2l0.2,0.2c0.2,0.3,0.3,0.4,0.4,0.5l0.1,0.1l0.1,0.1
		c0.8,1.3,1.2,2.7,1.2,4.2c0,4.3-3.5,7.8-7.8,7.8h-65.4h-12v12v51.9v12h12h98.2c35.6,0,64.7-27.8,66.4-63.3c0-1,0.1-2.1,0.1-3.2
		c0-14.6-4.6-28.4-13.4-40L1071.7,390.1z"/>
	<path class="st0" d="M1160.6,347c-0.5-1.6-2.2-3-2.2-3s2.4-0.8,2.4-3.1c0-4.7-4.6-4.7-4.6-4.7h-7.7v14.7h3.9v-5.4h2.4
		c0,0,1.1,1.1,1.7,2.2s0.9,3.1,0.9,3.1h4C1161.4,350.9,1161.2,348.6,1160.6,347z M1154.5,342.8h-2V339h1.9c0,0,2.2,0,2.2,1.9
		C1156.5,342.8,1154.5,342.8,1154.5,342.8z M1154.5,328.6c-8.3,0-15,6.7-15,15s6.7,15,15,15s15-6.7,15-15S1162.8,328.6,1154.5,328.6
		z M1154.5,354.8c-6.2,0-11.2-5-11.2-11.2s5-11.2,11.2-11.2s11.2,5,11.2,11.2S1160.7,354.8,1154.5,354.8z"/>
</g>
</svg>
