<?xml version="1.0" encoding="utf-8"?>
<!-- Generator: Adobe Illustrator 26.5.0, SVG Export Plug-In . SVG Version: 6.00 Build 0)  -->
<svg version="1.1" id="Layer_1" xmlns="http://www.w3.org/2000/svg" xmlns:xlink="http://www.w3.org/1999/xlink" x="0px" y="0px"
	 viewBox="0 0 1242 1242" style="enable-background:new 0 0 1242 1242;" xml:space="preserve">
<style type="text/css">
	.st0{fill:url(#SVGID_1_);}
	.st1{fill:url(#SVGID_00000134930882164611673990000010596610285852420744_);}
	.st2{fill:url(#SVGID_00000056386623921548833830000001597605494181262741_);}
	.st3{fill:url(#SVGID_00000065038373124760433950000002285974562873368461_);}
	.st4{fill:url(#SVGID_00000010292519747421286170000000124139260203938494_);}
	.st5{fill:url(#SVGID_00000085241563322243739000000009557879648431905686_);}
	.st6{fill:url(#SVGID_00000145775510932733802460000011092677612638445744_);}
	.st7{fill:#A54F9E;}
</style>
<linearGradient id="SVGID_1_" gradientUnits="userSpaceOnUse" x1="189.725" y1="862.325" x2="1052.275" y2="-0.225">
	<stop  offset="0" style="stop-color:#2C3E50"/>
	<stop  offset="1" style="stop-color:#2980B9"/>
</linearGradient>
<polygon class="st0" points="0,189.5 0,672.3 379.9,672.3 379.9,1052.5 862.1,1052.5 862.1,672.3 1242,672.3 1242,189.5 "/>
<g>
	
		<linearGradient id="SVGID_00000087377139172470150250000008249890125332081324_" gradientUnits="userSpaceOnUse" x1="77.075" y1="511.475" x2="288.625" y2="299.925">
		<stop  offset="0" style="stop-color:#C0392B"/>
		<stop  offset="0.2792" style="stop-color:#C23C2B"/>
		<stop  offset="0.5035" style="stop-color:#C74629"/>
		<stop  offset="0.7086" style="stop-color:#D15727"/>
		<stop  offset="0.9013" style="stop-color:#DE6F24"/>
		<stop  offset="1" style="stop-color:#E67E22"/>
	</linearGradient>
	<polygon style="fill:url(#SVGID_00000087377139172470150250000008249890125332081324_);" points="260.8,284.1 104.9,284.1 
		92.9,284.1 92.9,296.1 92.9,348 92.9,360 104.9,360 145.2,360 145.2,567.6 145.2,579.6 157.2,579.6 208.5,579.6 220.5,579.6 
		220.5,567.6 220.5,360 260.8,360 272.8,360 272.8,348 272.8,296.1 272.8,284.1 	"/>
	
		<linearGradient id="SVGID_00000125566742680581602690000011156585460588838305_" gradientUnits="userSpaceOnUse" x1="287.4375" y1="544.8125" x2="506.525" y2="325.725">
		<stop  offset="0" style="stop-color:#E67E22"/>
		<stop  offset="0.2776" style="stop-color:#E68121"/>
		<stop  offset="0.5005" style="stop-color:#E88B1E"/>
		<stop  offset="0.7044" style="stop-color:#EB9C1A"/>
		<stop  offset="0.8959" style="stop-color:#EEB413"/>
		<stop  offset="1" style="stop-color:#F1C40F"/>
	</linearGradient>
	<path style="fill:url(#SVGID_00000125566742680581602690000011156585460588838305_);" d="M505.4,561.7L476,509.8l-3.5-6.1h-7h-96
		c-5,0-9.1-4.1-9.1-9.1V461h36.4h7l3.5-6.1l29.5-51.9l10.2-17.9h-20.6h-65.9v-25.2H453h12v-12v-51.8v-11.9h-12H297.1h-12v12v220.1
		c0,34.9,28.4,63.3,63.3,63.3H495h20.6L505.4,561.7z"/>
	
		<linearGradient id="SVGID_00000063611375815876825800000007139688569268285330_" gradientUnits="userSpaceOnUse" x1="461.575" y1="511.475" x2="673.125" y2="299.925">
		<stop  offset="0" style="stop-color:#F1C40F"/>
		<stop  offset="0.1815" style="stop-color:#EEC411"/>
		<stop  offset="0.3272" style="stop-color:#E4C516"/>
		<stop  offset="0.4607" style="stop-color:#D3C51E"/>
		<stop  offset="0.5867" style="stop-color:#BBC62A"/>
		<stop  offset="0.7076" style="stop-color:#9CC73A"/>
		<stop  offset="0.8245" style="stop-color:#76C94D"/>
		<stop  offset="0.9363" style="stop-color:#4BCB63"/>
		<stop  offset="1" style="stop-color:#2ECC71"/>
	</linearGradient>
	<polygon style="fill:url(#SVGID_00000063611375815876825800000007139688569268285330_);" points="657.2,284.1 645.2,284.1 
		489.4,284.1 477.4,284.1 477.4,296.1 477.4,348 477.4,360 489.4,360 529.7,360 529.7,567.6 529.7,579.6 541.7,579.6 593,579.6 
		605,579.6 605,567.6 605,360 645.3,360 657.3,360 657.3,348 657.3,296.1 657.3,284.1 	"/>
	
		<linearGradient id="SVGID_00000088094110931055340460000000942665108760751518_" gradientUnits="userSpaceOnUse" x1="645.775" y1="555.175" x2="869.2155" y2="331.7345">
		<stop  offset="0" style="stop-color:#2ECC71"/>
		<stop  offset="0.2337" style="stop-color:#2ECA74"/>
		<stop  offset="0.4214" style="stop-color:#2FC67E"/>
		<stop  offset="0.5931" style="stop-color:#30BD8F"/>
		<stop  offset="0.7553" style="stop-color:#31B2A7"/>
		<stop  offset="0.9093" style="stop-color:#33A3C5"/>
		<stop  offset="1" style="stop-color:#3498DB"/>
	</linearGradient>
	<path style="fill:url(#SVGID_00000088094110931055340460000000942665108760751518_);" d="M866,476.2l-36.6-60.7l17.9-25.1l0.2-0.3
		l1.4-2l0.1-0.1l0.1-0.1c7.5-11,11.4-23.9,11.4-37.3c0-1,0-2.1-0.1-3.1c-1.5-33.7-28.1-61-61.9-63.2l-0.2-0.1h-0.4H682.3h-12v12
		v271.5v12h12h51.3h12v-12V422.8l91.3,151.1l3.5,5.8h6.8h8.5h12v-12v-85.3v-3.3L866,476.2z M745.5,403.9V360h0.2H758h0.6l0.6-0.1
		c0,0,0.2,0,0.5,0s0.5,0,0.5,0h0.1h0.1c4.7,0.4,8.4,4.4,8.4,9.1c0,2.5-1,4.4-1.8,5.4l-0.1,0.1v0.1l-11.1,15.2L745.5,403.9z"/>
	
		<linearGradient id="SVGID_00000100362584337473104520000014737228609328807601_" gradientUnits="userSpaceOnUse" x1="825.45" y1="524.55" x2="1010.85" y2="339.15">
		<stop  offset="0" style="stop-color:#3498DB"/>
		<stop  offset="0.2365" style="stop-color:#3796DA"/>
		<stop  offset="0.4264" style="stop-color:#4190D6"/>
		<stop  offset="0.6002" style="stop-color:#5286D0"/>
		<stop  offset="0.7643" style="stop-color:#6A77C8"/>
		<stop  offset="0.9203" style="stop-color:#8864BD"/>
		<stop  offset="1" style="stop-color:#9B59B6"/>
	</linearGradient>
	<polygon style="fill:url(#SVGID_00000100362584337473104520000014737228609328807601_);" points="943.8,284.1 892.5,284.1 
		880.5,284.1 880.5,296.1 880.5,567.6 880.5,579.6 892.5,579.6 943.8,579.6 955.8,579.6 955.8,567.6 955.8,296.1 955.8,284.1 	"/>
	
		<linearGradient id="SVGID_00000172428715741955668350000005662180931721460371_" gradientUnits="userSpaceOnUse" x1="939.9282" y1="549.2285" x2="1176.9281" y2="312.2285">
		<stop  offset="0" style="stop-color:#9B59B6"/>
		<stop  offset="0.2205" style="stop-color:#9D59B3"/>
		<stop  offset="0.3975" style="stop-color:#A358A9"/>
		<stop  offset="0.5595" style="stop-color:#AE5698"/>
		<stop  offset="0.7125" style="stop-color:#BD5380"/>
		<stop  offset="0.8578" style="stop-color:#D05062"/>
		<stop  offset="0.9981" style="stop-color:#E74C3D"/>
		<stop  offset="1" style="stop-color:#E74C3C"/>
	</linearGradient>
	<path style="fill:url(#SVGID_00000172428715741955668350000005662180931721460371_);" d="M1071.7,390.1l-11.2-15l-0.3-0.3
		c-0.8-1.1-1.7-3-1.7-5.4c0-4.8,3.8-8.9,8.6-9.3h0.1h0.1c0,0,0.2,0,0.5,0s0.5,0,0.6,0l0.6,0.1h0.6h27.5h6.8l3.5-5.9l30.9-51.8
		l10.8-18.1H1128h-89.7c-1.6-0.3-3-0.4-4.4-0.4c-36.6,0-66.5,29.8-66.5,66.5c0,14.2,4.4,27.8,12.8,39.2l61.2,84.6l11.7,16.1l0.1,0.1
		l0.1,0.1l0.1,0.1l0.2,0.2l0.2,0.2c0.2,0.3,0.3,0.4,0.4,0.5l0.1,0.1l0.1,0.1c0.8,1.3,1.2,2.7,1.2,4.2c0,4.3-3.5,7.8-7.8,7.8h-65.4
		h-12v12v51.9v12h12h98.2c35.6,0,64.7-27.8,66.4-63.3c0-1,0.1-2.1,0.1-3.2c0-14.6-4.6-28.4-13.4-40L1071.7,390.1z"/>
	<path class="st7" d="M1160.6,347c-0.5-1.6-2.2-3-2.2-3s2.4-0.8,2.4-3.1c0-4.7-4.6-4.7-4.6-4.7h-7.7v14.7h3.9v-5.4h2.4
		c0,0,1.1,1.1,1.7,2.2c0.6,1.1,0.9,3.1,0.9,3.1h4C1161.4,350.9,1161.2,348.6,1160.6,347z M1154.5,342.8h-2V339h1.9
		c0,0,2.2,0,2.2,1.9C1156.5,342.8,1154.5,342.8,1154.5,342.8z M1154.5,328.6c-8.3,0-15,6.7-15,15s6.7,15,15,15s15-6.7,15-15
		S1162.8,328.6,1154.5,328.6z M1154.5,354.8c-6.2,0-11.2-5-11.2-11.2s5-11.2,11.2-11.2s11.2,5,11.2,11.2S1160.7,354.8,1154.5,354.8z
		"/>
</g>
</svg>
